<svg xmlns="http://www.w3.org/2000/svg" width="58.641" height="62.368" viewBox="0 0 58.641 62.368">
  <g id="Group_1057" data-name="Group 1057" transform="translate(0 0)">
    <path id="Path_317" data-name="Path 317" d="M8.84,35.373a4.618,4.618,0,0,0,1.313,3.266,4.363,4.363,0,0,0,3.195,1.278h.035c8.271-.177,21.9-17.961,22.682-26.694l.036-.532-.532.036C26.8,13.471,9.017,27.066,8.84,35.373Z" transform="translate(22.539 22.452)" fill="#470a68"/>
    <path id="Path_318" data-name="Path 318" d="M55.091,18.38l-.426-.355C48.418,12.7,32.941,9.08,20.02,9.08,9.336,9.08.142,11.529,0,18.38c.106,6.886,9.336,9.3,20.056,9.336,12.921-.035,28.362-3.621,34.609-8.981Z" transform="translate(0 13.248)" fill="#470a68"/>
    <path id="Path_319" data-name="Path 319" d="M13.384,2.79A4.477,4.477,0,0,0,10.153,4.1,4.233,4.233,0,0,0,8.84,7.334c.177,8.306,17.961,21.9,26.729,22.683l.532.035-.036-.532C35.25,20.751,21.654,2.967,13.384,2.79Z" transform="translate(22.539 -2.79)" fill="#470a68"/>
  </g>
</svg>
